<svg xmlns="http://www.w3.org/2000/svg" xmlns:xlink="http://www.w3.org/1999/xlink" width="500" zoomAndPan="magnify" viewBox="0 0 375 374.999991" height="500" preserveAspectRatio="xMidYMid meet" version="1.0"><defs><clipPath id="883e09fc45"><path d="M 15.019531 53.75 L 187 53.75 L 187 127.332031 L 15.019531 127.332031 Z M 15.019531 53.75 " clip-rule="nonzero"/></clipPath><clipPath id="fbe364b06b"><path d="M 21.769531 53.75 L 180.164062 53.75 C 183.894531 53.75 186.914062 56.773438 186.914062 60.5 L 186.914062 120.582031 C 186.914062 124.3125 183.894531 127.332031 180.164062 127.332031 L 21.769531 127.332031 C 18.039062 127.332031 15.019531 124.3125 15.019531 120.582031 L 15.019531 60.5 C 15.019531 56.773438 18.039062 53.75 21.769531 53.75 Z M 21.769531 53.75 " clip-rule="nonzero"/></clipPath><clipPath id="a9f1001080"><path d="M 15.019531 150.707031 L 187 150.707031 L 187 224.292969 L 15.019531 224.292969 Z M 15.019531 150.707031 " clip-rule="nonzero"/></clipPath><clipPath id="2c0a2f0af1"><path d="M 21.769531 150.707031 L 180.164062 150.707031 C 183.894531 150.707031 186.914062 153.730469 186.914062 157.457031 L 186.914062 217.542969 C 186.914062 221.269531 183.894531 224.292969 180.164062 224.292969 L 21.769531 224.292969 C 18.039062 224.292969 15.019531 221.269531 15.019531 217.542969 L 15.019531 157.457031 C 15.019531 153.730469 18.039062 150.707031 21.769531 150.707031 Z M 21.769531 150.707031 " clip-rule="nonzero"/></clipPath><clipPath id="7ea11fc9c8"><path d="M 15.019531 247.664062 L 187 247.664062 L 187 321.25 L 15.019531 321.25 Z M 15.019531 247.664062 " clip-rule="nonzero"/></clipPath><clipPath id="01e4e8edca"><path d="M 21.769531 247.664062 L 180.164062 247.664062 C 183.894531 247.664062 186.914062 250.6875 186.914062 254.414062 L 186.914062 314.5 C 186.914062 318.226562 183.894531 321.25 180.164062 321.25 L 21.769531 321.25 C 18.039062 321.25 15.019531 318.226562 15.019531 314.5 L 15.019531 254.414062 C 15.019531 250.6875 18.039062 247.664062 21.769531 247.664062 Z M 21.769531 247.664062 " clip-rule="nonzero"/></clipPath><clipPath id="ae879aa1b8"><path d="M 196.746094 54.660156 L 273.617188 54.660156 L 273.617188 321.316406 L 196.746094 321.316406 Z M 196.746094 54.660156 " clip-rule="nonzero"/></clipPath><clipPath id="b4071b8984"><path d="M 273.617188 61.410156 L 273.617188 314.5 C 273.617188 318.226562 270.597656 321.25 266.867188 321.25 L 203.496094 321.25 C 199.765625 321.25 196.746094 318.226562 196.746094 314.5 L 196.746094 61.410156 C 196.746094 57.683594 199.765625 54.660156 203.496094 54.660156 L 266.867188 54.660156 C 270.597656 54.660156 273.617188 57.683594 273.617188 61.410156 Z M 273.617188 61.410156 " clip-rule="nonzero"/></clipPath><clipPath id="6482519d86"><path d="M 283.097656 53.75 L 359.972656 53.75 L 359.972656 224.3125 L 283.097656 224.3125 Z M 283.097656 53.75 " clip-rule="nonzero"/></clipPath><clipPath id="39c7d3149e"><path d="M 359.972656 60.5 L 359.972656 217.542969 C 359.972656 221.269531 356.949219 224.292969 353.222656 224.292969 L 289.847656 224.292969 C 286.121094 224.292969 283.097656 221.269531 283.097656 217.542969 L 283.097656 60.5 C 283.097656 56.773438 286.121094 53.75 289.847656 53.75 L 353.222656 53.75 C 356.949219 53.75 359.972656 56.773438 359.972656 60.5 Z M 359.972656 60.5 " clip-rule="nonzero"/></clipPath></defs><g clip-path="url(#883e09fc45)"><g clip-path="url(#fbe364b06b)"><path fill="#1e90ff" d="M 15.019531 53.75 L 186.902344 53.75 L 186.902344 127.332031 L 15.019531 127.332031 Z M 15.019531 53.75 " fill-opacity="1" fill-rule="nonzero"/></g></g><g clip-path="url(#a9f1001080)"><g clip-path="url(#2c0a2f0af1)"><path fill="#1e90ff" d="M 15.019531 150.707031 L 186.902344 150.707031 L 186.902344 224.292969 L 15.019531 224.292969 Z M 15.019531 150.707031 " fill-opacity="1" fill-rule="nonzero"/></g></g><g clip-path="url(#7ea11fc9c8)"><g clip-path="url(#01e4e8edca)"><path fill="#1e90ff" d="M 15.019531 247.664062 L 186.902344 247.664062 L 186.902344 321.25 L 15.019531 321.25 Z M 15.019531 247.664062 " fill-opacity="1" fill-rule="nonzero"/></g></g><g clip-path="url(#ae879aa1b8)"><g clip-path="url(#b4071b8984)"><path fill="#7ed957" d="M 273.617188 54.660156 L 273.617188 321.316406 L 196.746094 321.316406 L 196.746094 54.660156 Z M 273.617188 54.660156 " fill-opacity="1" fill-rule="nonzero"/></g></g><g clip-path="url(#6482519d86)"><g clip-path="url(#39c7d3149e)"><path fill="#7ed957" d="M 359.972656 53.75 L 359.972656 224.3125 L 283.097656 224.3125 L 283.097656 53.75 Z M 359.972656 53.75 " fill-opacity="1" fill-rule="nonzero"/></g></g></svg>